<svg width="72" height="72" viewBox="0 0 72 72" fill="none" xmlns="http://www.w3.org/2000/svg">
<path d="M36 0C16.1129 0 0 16.1129 0 36C0 55.8871 16.1129 72 36 72C55.8871 72 72 55.8871 72 36C72 16.1129 55.8871 0 36 0ZM36 13.9355C43.0548 13.9355 48.7742 19.6548 48.7742 26.7097C48.7742 33.7645 43.0548 39.4839 36 39.4839C28.9452 39.4839 23.2258 33.7645 23.2258 26.7097C23.2258 19.6548 28.9452 13.9355 36 13.9355ZM36 63.871C27.479 63.871 19.8435 60.0097 14.7339 53.971C17.4629 48.8323 22.8048 45.2903 29.0323 45.2903C29.3806 45.2903 29.729 45.3484 30.0629 45.45C31.95 46.0597 33.9242 46.4516 36 46.4516C38.0758 46.4516 40.0645 46.0597 41.9371 45.45C42.271 45.3484 42.6194 45.2903 42.9677 45.2903C49.1952 45.2903 54.5371 48.8323 57.2661 53.971C52.1564 60.0097 44.521 63.871 36 63.871Z" fill="#ADADAD"/>
</svg>
