<svg width="48" height="48" viewBox="0 0 48 48" fill="none" xmlns="http://www.w3.org/2000/svg">
<rect width="48" height="48" fill="white"/>
<rect x="8" y="7" width="32" height="36" fill="#E9E9E9"/>
<rect x="17" y="5" width="14" height="4" fill="#049669"/>
<path d="M21.872 28.456H24.71C24.38 25.354 28.208 24.32 28.208 21.196C28.208 18.358 26.272 16.994 23.61 16.994C21.696 16.994 20.134 17.896 18.99 19.194L20.772 20.844C21.498 20.096 22.268 19.612 23.236 19.612C24.38 19.612 25.106 20.294 25.106 21.416C25.106 23.506 21.344 24.914 21.872 28.456ZM23.302 34.308C24.446 34.308 25.326 33.406 25.326 32.196C25.326 30.986 24.446 30.106 23.302 30.106C22.136 30.106 21.3 30.986 21.3 32.196C21.3 33.406 22.136 34.308 23.302 34.308Z" fill="black"/>
</svg>
