<svg width="27" height="27" viewBox="0 0 27 27" fill="none" xmlns="http://www.w3.org/2000/svg">
<circle cx="13" cy="13" r="12" fill="white"/>
<path d="M13.3503 0C5.97533 0 0 5.97533 0 13.3503C0 20.7252 5.97533 26.7006 13.3503 26.7006C20.7252 26.7006 26.7006 20.7252 26.7006 13.3503C26.7006 5.97533 20.7252 0 13.3503 0ZM13.3503 5.16785C15.9665 5.16785 18.0875 7.28882 18.0875 9.90504C18.0875 12.5213 15.9665 14.6422 13.3503 14.6422C10.7341 14.6422 8.61308 12.5213 8.61308 9.90504C8.61308 7.28882 10.7341 5.16785 13.3503 5.16785ZM13.3503 23.686C10.1904 23.686 7.3588 22.2541 5.46392 20.0146C6.47596 18.109 8.45697 16.7955 10.7664 16.7955C10.8955 16.7955 11.0247 16.817 11.1486 16.8547C11.8484 17.0808 12.5805 17.2262 13.3503 17.2262C14.1201 17.2262 14.8576 17.0808 15.552 16.8547C15.6758 16.817 15.805 16.7955 15.9342 16.7955C18.2436 16.7955 20.2246 18.109 21.2366 20.0146C19.3418 22.2541 16.5102 23.686 13.3503 23.686Z" fill="#ADADAD"/>
</svg>
