<svg width="24" height="24" viewBox="0 0 24 24" fill="none" xmlns="http://www.w3.org/2000/svg">
<path d="M23.0404 20.198L18.4916 15.6492C18.2863 15.4439 18.008 15.3298 17.716 15.3298H16.9723C18.2316 13.7193 18.9798 11.6936 18.9798 9.4899C18.9798 4.24764 14.7322 0 9.4899 0C4.24764 0 0 4.24764 0 9.4899C0 14.7322 4.24764 18.9798 9.4899 18.9798C11.6936 18.9798 13.7193 18.2316 15.3298 16.9723V17.716C15.3298 18.008 15.4439 18.2863 15.6492 18.4916L20.198 23.0404C20.6269 23.4693 21.3203 23.4693 21.7447 23.0404L23.0358 21.7492C23.4647 21.3203 23.4647 20.6269 23.0404 20.198ZM9.4899 15.3298C6.26425 15.3298 3.64996 12.7201 3.64996 9.4899C3.64996 6.26425 6.25969 3.64996 9.4899 3.64996C12.7156 3.64996 15.3298 6.25969 15.3298 9.4899C15.3298 12.7156 12.7201 15.3298 9.4899 15.3298Z" fill="#969696"/>
</svg>
