<svg id="Layer_1" data-name="Layer 1" xmlns="http://www.w3.org/2000/svg" viewBox="0 0 340.15 388.01"><defs><style>.cls-1,.cls-2{fill:none;stroke:#231815;stroke-linecap:round;stroke-width:23px;}.cls-1{stroke-linejoin:round;}.cls-2{stroke-miterlimit:10;}.cls-3{fill:#231815;}</style></defs><title>flyers</title><rect class="cls-1" x="11.5" y="55.86" width="265.3" height="280.37" rx="36.54"/><line class="cls-2" x1="60.15" y1="182.03" x2="228.15" y2="182.03"/><line class="cls-2" x1="89.15" y1="134.71" x2="199.15" y2="134.71"/><line class="cls-2" x1="60.15" y1="223.56" x2="228.15" y2="223.56"/><line class="cls-2" x1="60.15" y1="265.1" x2="228.15" y2="265.1"/><rect class="cls-3" x="211.71" y="66.23" width="47.72" height="90.26" transform="translate(-10.75 -154.31) rotate(26.71)"/><path class="cls-1" d="M378,156.46H366V360.52a36.54,36.54,0,0,1-36.54,36.54H149.27v3.23a36.54,36.54,0,0,0,36.54,36.54H378a36.54,36.54,0,0,0,36.54-36.54V193A36.54,36.54,0,0,0,378,156.46Z" transform="translate(-85.93 -60.32)"/></svg>