<svg id="Layer_1" data-name="Layer 1" xmlns="http://www.w3.org/2000/svg" viewBox="0 0 309.4 378.68"><defs><style>.cls-1{fill:#231815;}.cls-2{fill:none;stroke:#231815;stroke-linecap:round;stroke-miterlimit:10;stroke-width:16px;}</style></defs><title>street</title><path class="cls-1" d="M349.38,399.13H122.15A24.87,24.87,0,0,1,97.3,374.28V100.92a24.88,24.88,0,0,1,24.85-24.86H349.38a24.88,24.88,0,0,1,24.85,24.86V374.28A24.87,24.87,0,0,1,349.38,399.13ZM122.15,92.06a8.86,8.86,0,0,0-8.85,8.86V374.28a8.86,8.86,0,0,0,8.85,8.85H349.38a8.86,8.86,0,0,0,8.85-8.85V100.92a8.86,8.86,0,0,0-8.85-8.86Z" transform="translate(-97.3 -51.09)"/><path class="cls-1" d="M381.85,106.7h-7.62v16h7.62a8.86,8.86,0,0,1,8.85,8.85V404.92a8.86,8.86,0,0,1-8.85,8.85H154.62a8.86,8.86,0,0,1-8.85-8.85v-5.79h-16v5.79a24.87,24.87,0,0,0,24.85,24.85H381.85a24.88,24.88,0,0,0,24.85-24.85V131.55A24.88,24.88,0,0,0,381.85,106.7Z" transform="translate(-97.3 -51.09)"/><rect class="cls-1" x="173.7" y="62.01" width="125.66" height="36.87" rx="9.2" transform="translate(-108.84 -0.27) rotate(-11.97)"/><line class="cls-2" x1="46.3" y1="111.38" x2="230.64" y2="111.38"/><line class="cls-2" x1="63.32" y1="278.65" x2="213.62" y2="278.65"/><line class="cls-2" x1="63.32" y1="223.16" x2="213.62" y2="223.16"/><line class="cls-2" x1="63.32" y1="167.67" x2="213.62" y2="167.67"/></svg>