<svg id="Layer_1" data-name="Layer 1" xmlns="http://www.w3.org/2000/svg" viewBox="0 0 339.01 378.88"><defs><style>.cls-1{fill:none;stroke:#fff;stroke-linecap:round;stroke-linejoin:round;stroke-width:25px;}.cls-2{fill:#fff;}</style></defs><title>write</title><path class="cls-1" d="M418.26,121,267.87,271.34H216.81V217.72l149.1-149.1Zm-83-21.71,52.34,52.34" transform="translate(-91.74 -56.12)"/><path class="cls-2" d="M167.67,435c-41.87,0-75.93-33.74-75.93-75.21V143.72c0-41.48,34.06-75.22,75.93-75.22h111a13.39,13.39,0,1,1,0,26.78h-111c-27,0-48.93,21.73-48.93,48.44V359.78c0,26.71,22,48.43,48.93,48.43H343.56c27,0,48.93-21.72,48.93-48.43V210.6a13.5,13.5,0,0,1,27,0V359.78c0,41.47-34.06,75.21-75.93,75.21Z" transform="translate(-91.74 -56.12)"/><path class="cls-2" d="M394.49,210.6V359.78c0,27.85-22.8,50.43-50.93,50.43H167.67c-28.13,0-50.93-22.58-50.93-50.43V143.72c0-27.86,22.8-50.44,50.93-50.44h111a11.45,11.45,0,0,0,11.5-11.39h0a11.45,11.45,0,0,0-11.5-11.39h-111c-40.83,0-73.93,32.78-73.93,73.22V359.78c0,40.43,33.1,73.21,73.93,73.21H343.56c40.83,0,73.93-32.78,73.93-73.21V210.6A11.45,11.45,0,0,0,406,199.21h0A11.45,11.45,0,0,0,394.49,210.6Z" transform="translate(-91.74 -56.12)"/></svg>