<svg id="Layer_1" data-name="Layer 1" xmlns="http://www.w3.org/2000/svg" viewBox="0 0 301.79 377.37"><defs><style>.cls-1,.cls-2{fill:none;stroke:#231815;stroke-width:16px;}.cls-1{stroke-linecap:round;stroke-linejoin:round;}.cls-2{stroke-miterlimit:10;}.cls-3{fill:#231815;}</style></defs><title>write</title><polygon class="cls-1" points="242.98 8 93.36 157.62 93.36 204.6 145.96 204.6 293.79 56.77 242.98 8"/><line class="cls-2" x1="211.19" y1="39.79" x2="260.98" y2="89.57"/><path class="cls-3" d="M377.79,233.34a7.75,7.75,0,0,0-7.75,7.75V405.87a8.73,8.73,0,0,1-8.85,8.58H134a8.73,8.73,0,0,1-8.85-8.58V100.3A8.73,8.73,0,0,1,134,91.73h92A7.75,7.75,0,0,0,233.7,84h0A7.75,7.75,0,0,0,226,76.23H134c-13.71,0-24.85,10.8-24.85,24.07V405.87c0,13.27,11.14,24.07,24.85,24.07H361.19c13.7,0,24.85-10.8,24.85-24.07V241.09a7.75,7.75,0,0,0-7.75-7.75Z" transform="translate(-109.11 -52.57)"/></svg>